<svg id="visual" viewBox="0 0 1440 300" width="1440" height="300" xmlns="http://www.w3.org/2000/svg" xmlns:xlink="http://www.w3.org/1999/xlink" version="1.1"><path d="M0 175L40 179.3C80 183.7 160 192.3 240 204.5C320 216.7 400 232.3 480 228.3C560 224.3 640 200.7 720 194.2C800 187.7 880 198.3 960 202.3C1040 206.3 1120 203.7 1200 201.7C1280 199.7 1360 198.3 1400 197.7L1440 197L1440 301L1400 301C1360 301 1280 301 1200 301C1120 301 1040 301 960 301C880 301 800 301 720 301C640 301 560 301 480 301C400 301 320 301 240 301C160 301 80 301 40 301L0 301Z" fill="#0b0b1a"></path><path d="M0 243L40 241.3C80 239.7 160 236.3 240 226.5C320 216.7 400 200.3 480 204.5C560 208.7 640 233.3 720 235.3C800 237.3 880 216.7 960 209C1040 201.3 1120 206.7 1200 206.8C1280 207 1360 202 1400 199.5L1440 197L1440 301L1400 301C1360 301 1280 301 1200 301C1120 301 1040 301 960 301C880 301 800 301 720 301C640 301 560 301 480 301C400 301 320 301 240 301C160 301 80 301 40 301L0 301Z" fill="#0d0d1e"></path><path d="M0 202L40 202.3C80 202.7 160 203.3 240 211.7C320 220 400 236 480 235C560 234 640 216 720 217.2C800 218.3 880 238.7 960 243.3C1040 248 1120 237 1200 228.2C1280 219.3 1360 212.7 1400 209.3L1440 206L1440 301L1400 301C1360 301 1280 301 1200 301C1120 301 1040 301 960 301C880 301 800 301 720 301C640 301 560 301 480 301C400 301 320 301 240 301C160 301 80 301 40 301L0 301Z" fill="#0f0f21"></path><path d="M0 240L40 235.8C80 231.7 160 223.3 240 222C320 220.7 400 226.3 480 232.2C560 238 640 244 720 244.5C800 245 880 240 960 238C1040 236 1120 237 1200 234.5C1280 232 1360 226 1400 223L1440 220L1440 301L1400 301C1360 301 1280 301 1200 301C1120 301 1040 301 960 301C880 301 800 301 720 301C640 301 560 301 480 301C400 301 320 301 240 301C160 301 80 301 40 301L0 301Z" fill="#111125"></path><path d="M0 252L40 249.3C80 246.7 160 241.3 240 242.5C320 243.7 400 251.3 480 255.7C560 260 640 261 720 260.5C800 260 880 258 960 256.3C1040 254.7 1120 253.3 1200 249.3C1280 245.3 1360 238.7 1400 235.3L1440 232L1440 301L1400 301C1360 301 1280 301 1200 301C1120 301 1040 301 960 301C880 301 800 301 720 301C640 301 560 301 480 301C400 301 320 301 240 301C160 301 80 301 40 301L0 301Z" fill="#121329"></path><path d="M0 270L40 267.8C80 265.7 160 261.3 240 258.5C320 255.7 400 254.3 480 254.7C560 255 640 257 720 256.7C800 256.3 880 253.7 960 253.2C1040 252.7 1120 254.3 1200 254C1280 253.7 1360 251.3 1400 250.2L1440 249L1440 301L1400 301C1360 301 1280 301 1200 301C1120 301 1040 301 960 301C880 301 800 301 720 301C640 301 560 301 480 301C400 301 320 301 240 301C160 301 80 301 40 301L0 301Z" fill="#13152c"></path><path d="M0 278L40 278C80 278 160 278 240 277.5C320 277 400 276 480 275.3C560 274.7 640 274.3 720 274C800 273.7 880 273.3 960 273.7C1040 274 1120 275 1200 278C1280 281 1360 286 1400 288.5L1440 291L1440 301L1400 301C1360 301 1280 301 1200 301C1120 301 1040 301 960 301C880 301 800 301 720 301C640 301 560 301 480 301C400 301 320 301 240 301C160 301 80 301 40 301L0 301Z" fill="#141630"></path></svg>